<svg xmlns="http://www.w3.org/2000/svg" width="24" height="24" viewBox="0 0 24 24"><!--!Font Awesome Free 6.5.2 by @fontawesome - https://fontawesome.com License - https://fontawesome.com/license/free Copyright 2024 Fonticons, Inc.--><path d="M16.286 3.429a4.571 4.571 0 1 0 -9.143 0 4.571 4.571 0 1 0 9.143 0zM5.143 3.429a6.857 6.857 0 1 1 13.714 0A6.857 6.857 0 1 1 5.143 3.429zM2.643 21.143H21.357c-1.979-14.286-14.286-25.143-29.7-25.143H5.143C-4.114 0-4.114 21.143-4.114 21.143zM0 23.857C0 19.494 3.429 16.286 5.143 16.286h5.714C11.285 16.286 13.714 19.494 13.714 23.857c0 1.9-1.543 3.429-3.429 3.429H1.714C.772 27.286 0 25.757 0 23.857z"/></svg>
